<?xml version="1.0" standalone="no"?>
<!DOCTYPE svg PUBLIC "-//W3C//DTD SVG 20010904//EN"
 "http://www.w3.org/TR/2001/REC-SVG-20010904/DTD/svg10.dtd">
<svg version="1.0" xmlns="http://www.w3.org/2000/svg"
 width="128.000000pt" height="128.000000pt" viewBox="0 0 128.000000 128.000000"
 preserveAspectRatio="xMidYMid meet">

<g transform="translate(0.000000,128.000000) scale(0.100000,-0.100000)"
fill="#000000" stroke="none">
<path d="M528 1270 c-66 -12 -143 -38 -209 -71 -65 -32 -81 -49 -69 -69 7 -11
24 -6 92 28 190 95 407 95 598 -1 87 -43 196 -151 238 -235 146 -296 -36 -636
-388 -723 -71 -17 -229 -17 -300 0 -189 47 -354 186 -412 348 -57 160 -21 348
92 476 44 50 51 77 20 77 -50 0 -160 -191 -180 -313 -19 -112 -9 -296 22 -384
79 -224 303 -382 567 -399 123 -8 291 27 291 60 0 25 -17 27 -77 9 -42 -12
-92 -17 -178 -17 -104 1 -131 4 -200 28 -145 50 -258 143 -325 267 -40 76 -38
81 10 20 85 -108 226 -189 382 -222 116 -24 160 -24 276 0 156 33 297 114 382
222 46 59 49 57 16 -9 -38 -76 -100 -146 -171 -197 -62 -45 -77 -66 -55 -80
13 -8 82 32 138 80 62 54 130 155 160 238 25 67 27 84 27 237 -1 147 -3 172
-24 230 -83 235 -311 394 -581 405 -52 2 -116 0 -142 -5z"/>
<path d="M500 1135 c-237 -65 -379 -239 -368 -449 5 -94 32 -162 96 -243 43
-53 76 -73 95 -54 7 7 -3 25 -37 61 -26 28 -61 80 -78 116 -97 207 35 443 291
518 79 23 213 21 296 -5 68 -21 94 -17 82 13 -17 45 -268 73 -377 43z"/>
<path d="M924 1047 c-3 -8 24 -43 64 -83 85 -85 114 -151 114 -261 0 -158
-106 -293 -287 -363 -50 -20 -78 -24 -175 -24 -101 0 -124 4 -189 28 -60 23
-75 25 -82 14 -13 -20 23 -45 99 -68 146 -45 290 -33 430 36 285 140 339 488
107 692 -50 44 -72 52 -81 29z"/>
<path d="M509 873 c-62 -87 -113 -164 -113 -173 0 -26 224 -330 244 -330 20 0
244 304 244 330 0 26 -224 330 -244 330 -11 0 -59 -57 -131 -157z m106 -211
c-6 -6 -135 36 -149 49 -5 4 27 56 70 116 l79 108 3 -134 c1 -73 0 -136 -3
-139z m130 162 c43 -58 74 -109 69 -113 -11 -10 -127 -51 -143 -51 -8 0 -11
40 -11 135 0 74 2 135 4 135 2 0 39 -48 81 -106z m-127 -289 c2 -37 -1 -64 -5
-62 -10 6 -123 162 -123 169 0 3 28 -5 63 -17 l62 -23 3 -67z m116 25 c-32
-45 -62 -84 -67 -87 -4 -2 -7 25 -5 62 l3 68 60 21 c33 12 62 21 64 20 2 -2
-23 -40 -55 -84z"/>
</g>
</svg>
